<?xml version="1.0" encoding="UTF-8" standalone="no"?>
<svg
   enable-background="new 0 0 24 24"
   height="16"
   viewBox="0 0 16 16"
   width="16"
   fill="#000000"
   version="1.1"
   id="svg10"
   sodipodi:docname="backup_icon.svg"
   inkscape:version="1.2.2 (732a01da63, 2022-12-09)"
   xmlns:inkscape="http://www.inkscape.org/namespaces/inkscape"
   xmlns:sodipodi="http://sodipodi.sourceforge.net/DTD/sodipodi-0.dtd"
   xmlns="http://www.w3.org/2000/svg"
   xmlns:svg="http://www.w3.org/2000/svg">
  <defs
     id="defs14" />
  <sodipodi:namedview
     id="namedview12"
     pagecolor="#ffffff"
     bordercolor="#000000"
     borderopacity="0.25"
     inkscape:showpageshadow="2"
     inkscape:pageopacity="0.0"
     inkscape:pagecheckerboard="0"
     inkscape:deskcolor="#d1d1d1"
     showgrid="false"
     inkscape:zoom="7.8812945"
     inkscape:cx="0.76129626"
     inkscape:cy="15.860339"
     inkscape:window-width="1366"
     inkscape:window-height="715"
     inkscape:window-x="-8"
     inkscape:window-y="-8"
     inkscape:window-maximized="1"
     inkscape:current-layer="svg10"
     showguides="true" />
  <path
     id="path289"
     style="fill:#ffffff;stroke:none;stroke-width:0.0145833;stroke-opacity:1"
     d="M 6.25,1 C 4.8013917,1 3.564538,1.2281697 2.538846,1.6851129 1.513153,2.1420568 1,2.6916681 1,3.3333333 V 9.166667 c 0,0.651387 0.507684,1.203732 1.523654,1.655815 0.53144,0.236478 1.126763,0.408272 1.7819016,0.521051 v -1.21224 C 4.0566875,10.081533 3.819375,10.025336 3.596137,9.961154 3.207249,9.84935 2.883072,9.725087 2.625434,9.588976 2.367796,9.452865 2.215278,9.3125 2.166667,9.166667 V 7.7235241 c 0.243055,0.1361111 0.515886,0.2576389 0.817274,0.3645829 0.301388,0.106945 0.624046,0.195964 0.969184,0.268881 0.1147336,0.02424 0.2328624,0.04636 0.3524306,0.06684 V 7.2571616 C 4.1859874,7.2366826 4.0678586,7.2145646 3.953125,7.1903206 3.607987,7.1174036 3.285329,7.0283849 2.983941,6.9214405 2.682553,6.814496 2.409722,6.6929683 2.166667,6.5568571 V 4.8068576 c 0.243055,0.136111 0.515886,0.257639 0.817274,0.3645833 0.301388,0.1069436 0.624046,0.1959637 0.969184,0.2688803 0.3187776,0.067348 0.6586573,0.1196681 1.0147569,0.1579861 C 5.227628,5.3822067 5.5580157,5.1863955 5.9598524,5.0073785 7.0166268,4.5365878 8.280949,4.3055556 9.75,4.3055556 c 0.62073,0 1.202588,0.042934 1.75,0.126085 V 3.3333333 C 11.5,2.6916681 10.986847,2.1420568 9.961154,1.6851129 8.935463,1.2281697 7.698608,1 6.25,1 Z m 0,1.1666667 c 0.8749984,0 1.7472669,0.1269975 2.617404,0.3797742 0.870138,0.2527776 1.358985,0.52014 1.465929,0.8020834 C 10.226389,3.6304685 9.734808,3.8950957 8.859809,4.1430121 7.9848108,4.3909278 7.1152762,4.515191 6.25,4.5151909 5.3652795,4.5151909 4.4969601,4.3936629 3.646267,4.1506076 2.795575,3.9075531 2.302777,3.6401907 2.166667,3.3485243 2.302777,3.0568587 2.795575,2.7867611 3.646267,2.5388455 4.4969601,2.290929 5.3652795,2.1666667 6.25,2.1666667 Z M 9.75,4.5 C 8.30139,4.5 7.0645387,4.7281689 6.0388455,5.1851129 5.013152,5.6420568 4.5,6.1916673 4.5,6.8333333 v 5.8333337 c 0,0.651388 0.5076833,1.203731 1.5236545,1.655815 C 7.0396257,14.774564 8.281946,15 9.75,15 11.218054,15 12.460374,14.774564 13.476346,14.322482 14.492316,13.870398 15,13.318055 15,12.666667 V 6.8333333 C 15,6.1916673 14.486848,5.6420568 13.461154,5.1851129 12.435461,4.7281689 11.19861,4.5 9.75,4.5 Z m 0,1.1666667 c 0.874999,0 1.747266,0.1269968 2.617404,0.3797742 0.870138,0.2527776 1.358985,0.5201395 1.465929,0.8020832 C 13.726389,7.1304686 13.234808,7.3950958 12.359809,7.6430124 11.48481,7.8909283 10.615277,8.015191 9.75,8.015191 8.865279,8.015191 7.9969612,7.893663 7.1462676,7.6506074 6.2955737,7.4075527 5.8027776,7.1401908 5.6666667,6.8485241 5.8027776,6.5568582 6.2955737,6.2867619 7.1462676,6.0388455 7.9969612,5.790929 8.865279,5.6666667 9.75,5.6666667 Z M 5.6666667,8.306857 c 0.2430553,0.136112 0.5158857,0.257639 0.8172741,0.364584 0.3013889,0.106943 0.6240453,0.195962 0.9691842,0.26888 0.3451389,0.07292 0.712457,0.129731 1.101346,0.16862 0.388888,0.03889 0.787196,0.05773 1.195529,0.05773 0.408333,0 0.802691,-0.01884 1.181857,-0.05773 0.379167,-0.03889 0.741017,-0.0957 1.086155,-0.16862 0.345139,-0.07292 0.67053,-0.161937 0.97678,-0.26888 0.30625,-0.106945 0.585764,-0.228472 0.838541,-0.364584 v 1.75 c -0.252777,0.136112 -0.532291,0.257639 -0.838541,0.364584 -0.30625,0.106944 -0.631641,0.195964 -0.97678,0.26888 -0.345138,0.07292 -0.706988,0.129731 -1.086155,0.16862 -0.379166,0.03889 -0.773524,0.05773 -1.181857,0.05773 -0.408333,0 -0.806641,-0.01884 -1.195529,-0.05773 -0.388889,-0.03889 -0.7562071,-0.0957 -1.101346,-0.16862 C 7.1079861,10.617401 6.7853297,10.528385 6.4839408,10.421441 6.1825524,10.314496 5.909722,10.192969 5.6666667,10.056857 Z m 0,2.916667 c 0.2430553,0.136111 0.5158857,0.257639 0.8172741,0.364583 0.3013889,0.106945 0.6240453,0.195964 0.9691842,0.268881 0.3451389,0.07292 0.712457,0.129731 1.101346,0.168619 0.388888,0.03889 0.787196,0.05773 1.195529,0.05773 0.408333,0 0.802691,-0.01884 1.181857,-0.05773 0.379167,-0.03889 0.741017,-0.0957 1.086155,-0.168619 0.345139,-0.07292 0.67053,-0.161936 0.97678,-0.268881 0.30625,-0.106944 0.585764,-0.228472 0.838541,-0.364583 v 1.427952 c -0.04861,0.145833 -0.203863,0.290451 -0.466362,0.431423 -0.2625,0.140972 -0.587891,0.266452 -0.97678,0.378255 -0.388888,0.111806 -0.814237,0.202345 -1.276042,0.2704 -0.461805,0.06806 -0.916928,0.101779 -1.364149,0.101779 -0.447221,0 -0.903559,-0.03372 -1.370226,-0.101779 C 7.9131082,13.663504 7.4850256,13.57296 7.0961374,13.461154 6.7072486,13.349349 6.3830726,13.225087 6.1254341,13.088976 5.8677954,12.952865 5.7152777,12.8125 5.6666667,12.666667 Z" />
</svg>
